# xmcd
#
# Track frame offsets:
#	150
#	60188
#	80711
#	136719
#	191129
#	320457
#
# Disc length: 4596 seconds
#
# Revision: 1
# Processed by: cddbd v1.5.2PL0 Copyright (c) Steve Scherf et al.
# Submitted via: audiograbber 1.83.01
#
DISCID=4911f206
DTITLE=Klaus Schulze - Another Green Mile
DYEAR=2016
DGENRE=Electronic
TTITLE0=Between Twilight And Dawn
TTITLE1=In The Streets, In The Rain
TTITLE2=The Wisdom Of The Leaves
TTITLE3=The Story Does Unfold
TTITLE4=Follow Me Down, Follow Me Down
TTITLE5=Voice'n'Harmony [bonus track]
EXTD=
EXTT0=
EXTT1=
EXTT2=
EXTT3=
EXTT4=
EXTT5=
PLAYORDER=
